HIERARCHY
ROOT hip
{
  OFFSET 0 0 0
  CHANNELS 6 Xposition Yposition Zposition Zrotation Yrotation Xrotation
  JOINT abdomen
  {
    OFFSET 0 20.6881 -0.73152
    CHANNELS 3 Zrotation Xrotation Yrotation
    JOINT chest
    {
      OFFSET 0 11.7043 -0.48768
      CHANNELS 3 Zrotation Xrotation Yrotation
      JOINT neck
      {
        OFFSET 0 22.1894 -2.19456
        CHANNELS 3 Zrotation Xrotation Yrotation
        JOINT head
        {
          OFFSET -0.24384 7.07133 1.2192
          CHANNELS 3 Zrotation Xrotation Yrotation
          JOINT leftEye
          {
            OFFSET 4.14528 8.04674 8.04672
            CHANNELS 3 Zrotation Xrotation Yrotation
            End Site
            {
              OFFSET 1 0 0
            }
          }
          JOINT rightEye
          {
            OFFSET -3.6576 8.04674 8.04672
            CHANNELS 3 Zrotation Xrotation Yrotation
            End Site
            {
              OFFSET 1 0 0
            }
          }
        }
      }
      JOINT rCollar
      {
        OFFSET -2.68224 19.2634 -4.8768
        CHANNELS 3 Zrotation Xrotation Yrotation
        JOINT rShldr
        {
          OFFSET -8.77824 -1.95073 1.46304
          CHANNELS 3 Zrotation Xrotation Yrotation
          JOINT rForeArm
          {
            OFFSET -28.1742 -1.7115 0.48768
            CHANNELS 3 Zrotation Xrotation Yrotation
            JOINT rHand
            {
              OFFSET -22.5879 0.773209 7.07136
              CHANNELS 3 Zrotation Xrotation Yrotation
              JOINT rThumb1
              {
                OFFSET -1.2192 -0.487915 3.41376
                CHANNELS 3 Zrotation Xrotation Yrotation
                JOINT rThumb2
                {
                  OFFSET -3.37035 -0.52449 3.41376
                  CHANNELS 3 Zrotation Xrotation Yrotation
                  End Site
                  {
                    OFFSET -1.78271 -1.18214 1.43049
                  }
                }
              }
              JOINT rIndex1
              {
                OFFSET -7.75947 0.938293 5.60832
                CHANNELS 3 Zrotation Xrotation Yrotation
                JOINT rIndex2
                {
                  OFFSET -2.54057 -0.884171 1.56538
                  CHANNELS 3 Zrotation Xrotation Yrotation
                  End Site
                  {
                    OFFSET -1.62519 -0.234802 1.16502
                  }
                }
              }
              JOINT rMid1
              {
                OFFSET -8.24714 1.18213 3.41376
                CHANNELS 3 Zrotation Xrotation Yrotation
                JOINT rMid2
                {
                  OFFSET -3.10165 -0.590103 1.0647
                  CHANNELS 3 Zrotation Xrotation Yrotation
                  End Site
                  {
                    OFFSET -2.48547 -0.328903 0.83742
                  }
                }
              }
              JOINT rRing1
              {
                OFFSET -8.82822 0.546677 1.51678
                CHANNELS 3 Zrotation Xrotation Yrotation
                JOINT rRing2
                {
                  OFFSET -2.60934 -0.819778 -0.0198488
                  CHANNELS 3 Zrotation Xrotation Yrotation
                  End Site
                  {
                    OFFSET -2.33842 -0.294052 0.168128
                  }
                }
              }
              JOINT rPinky1
              {
                OFFSET -8.27202 -0.0477905 -0.4584
                CHANNELS 3 Zrotation Xrotation Yrotation
                JOINT rPinky2
                {
                  OFFSET -1.82734 -0.647385 -0.700984
                  CHANNELS 3 Zrotation Xrotation Yrotation
                  End Site
                  {
                    OFFSET -1.69225 -0.51767 -0.607171
                  }
                }
              }
            }
          }
        }
      }
      JOINT lCollar
      {
        OFFSET 2.68224 19.2634 -4.8768
        CHANNELS 3 Zrotation Xrotation Yrotation
        JOINT lShldr
        {
          OFFSET 8.77824 -1.95073 1.46304
          CHANNELS 3 Zrotation Xrotation Yrotation
          JOINT lForeArm
          {
            OFFSET 28.1742 -1.7115 0.48768
            CHANNELS 3 Zrotation Xrotation Yrotation
            JOINT lHand
            {
              OFFSET 22.5879 0.773209 7.07136
              CHANNELS 3 Zrotation Xrotation Yrotation
              JOINT lThumb1
              {
                OFFSET 1.2192 -0.487915 3.41376
                CHANNELS 3 Zrotation Xrotation Yrotation
                JOINT lThumb2
                {
                  OFFSET 3.37035 -0.52449 3.41376
                  CHANNELS 3 Zrotation Xrotation Yrotation
                  End Site
                  {
                    OFFSET 1.78271 -1.18214 1.43049
                  }
                }
              }
              JOINT lIndex1
              {
                OFFSET 7.75947 0.938293 5.60832
                CHANNELS 3 Zrotation Xrotation Yrotation
                JOINT lIndex2
                {
                  OFFSET 2.54057 -0.884171 1.56538
                  CHANNELS 3 Zrotation Xrotation Yrotation
                  End Site
                  {
                    OFFSET 1.62519 -0.234802 1.16502
                  }
                }
              }
              JOINT lMid1
              {
                OFFSET 8.24714 1.18213 3.41376
                CHANNELS 3 Zrotation Xrotation Yrotation
                JOINT lMid2
                {
                  OFFSET 3.10165 -0.590103 1.0647
                  CHANNELS 3 Zrotation Xrotation Yrotation
                  End Site
                  {
                    OFFSET 2.48547 -0.328903 0.83742
                  }
                }
              }
              JOINT lRing1
              {
                OFFSET 8.82822 0.546677 1.51678
                CHANNELS 3 Zrotation Xrotation Yrotation
                JOINT lRing2
                {
                  OFFSET 2.60934 -0.819778 -0.0198488
                  CHANNELS 3 Zrotation Xrotation Yrotation
                  End Site
                  {
                    OFFSET 2.33842 -0.294052 0.168128
                  }
                }
              }
              JOINT lPinky1
              {
                OFFSET 8.27202 -0.0477905 -0.4584
                CHANNELS 3 Zrotation Xrotation Yrotation
                JOINT lPinky2
                {
                  OFFSET 1.82734 -0.647385 -0.700984
                  CHANNELS 3 Zrotation Xrotation Yrotation
                  End Site
                  {
                    OFFSET 1.69225 -0.51767 -0.607171
                  }
                }
              }
            }
          }
        }
      }
    }
  }
  JOINT rButtock
  {
    OFFSET -8.77824 4.35084 1.2192
    CHANNELS 3 Zrotation Xrotation Yrotation
    JOINT rThigh
    {
      OFFSET 0 -1.70687 -2.19456
      CHANNELS 3 Zrotation Xrotation Yrotation
      JOINT rShin
      {
        OFFSET 0 -36.8199 0.73152
        CHANNELS 3 Zrotation Xrotation Yrotation
        JOINT rFoot
        {
          OFFSET 0.73152 -45.1104 -5.12064
          CHANNELS 3 Zrotation Xrotation Yrotation
          End Site
          {
            OFFSET -1.1221 -3.69964 12.103
          }
        }
      }
    }
  }
  JOINT lButtock
  {
    OFFSET 8.77824 4.35084 1.2192
    CHANNELS 3 Zrotation Xrotation Yrotation
    JOINT lThigh
    {
      OFFSET 0 -1.70687 -2.19456
      CHANNELS 3 Zrotation Xrotation Yrotation
      JOINT lShin
      {
        OFFSET 0 -36.8199 0.73152
        CHANNELS 3 Zrotation Xrotation Yrotation
        JOINT lFoot
        {
          OFFSET -0.73152 -45.1104 -5.12064
          CHANNELS 3 Zrotation Xrotation Yrotation
          End Site
          {
            OFFSET 1.1221 -3.69964 12.103
          }
        }
      }
    }
  }
}
MOTION
Frames:	4
Frame Time:	0.00833333
57.7872 75.8255 61.4635 178.337 -3.9951 -146.011 -7.7048 -20.6373 -2.46754 2.3048 7.61092 -0.795771 2.31547 9.82022 9.78813 34.4847 -14.313 18.2927 -0.0 0.0 0.0 -0.0 0.0 0.0 2.11913e-14 2.37147e-13 3.67752e-14 82.0721 26.0274 -1.09277 -20.7174 -13.9414 40.452 -0.0679371 -7.42152 -1.04895 -5.6994e-10 2.1608e-09 5.43331e-10 -9.93109e-10 3.74284e-09 9.36106e-10 -5.69938e-10 2.16079e-09 5.43329e-10 7.73091 5.47488 0.417314 -5.69944e-10 2.16079e-09 5.43333e-10 2.90554 0.965183 0.102902 -5.69937e-10 2.16079e-09 5.43333e-10 10.2786 0.731801 0.0259123 -5.69945e-10 2.1608e-09 5.43339e-10 2.22167 -0.733487 -0.20892 2.11885e-14 2.37153e-13 3.65018e-14 -73.828 24.8696 -2.06455 13.8714 -6.85064 -25.2967 0.00420089 1.8362 -0.258152 -4.56819e-10 1.61627e-09 2.08409e-09 -7.80838e-10 2.79712e-09 3.60425e-09 -4.56822e-10 1.61627e-09 2.0841e-09 -7.73091 5.47488 -0.417314 -4.56816e-10 1.61627e-09 2.08408e-09 -2.90554 0.965183 -0.102902 -4.56824e-10 1.61627e-09 2.08409e-09 -10.2786 0.731801 -0.0259123 -4.56817e-10 1.61627e-09 2.08408e-09 -2.22167 -0.733487 0.20892 -2.03217e-16 0.0 -3.88251e-19 6.53385 -59.5577 7.09972 -0.464513 48.0613 1.25416 -5.71856 -29.3122 -9.42932 2.03217e-16 0.0 3.88251e-19 -12.2683 -62.1651 -18.966 0.647714 51.1157 -1.01648 -0.105865 -14.2275 -1.65731
57.8002 75.1454 61.6026 178.291 -4.517 -145.911 -7.65275 -20.2507 -2.33279 2.21256 7.53529 -0.748736 3.05399 9.95015 10.121 33.5725 -14.3418 18.8195 -0.0 0.0 0.0 -0.0 0.0 0.0 -3.20252e-14 -8.01884e-14 -2.64671e-14 81.8765 26.5192 -0.829079 -20.8945 -14.1799 40.8987 -0.0711206 -7.58979 -1.07301 4.64672e-10 1.80869e-10 1.50597e-10 8.00543e-10 3.15046e-10 2.63549e-10 4.64674e-10 1.80862e-10 1.50595e-10 7.73091 5.47488 0.417314 4.64668e-10 1.80862e-10 1.506e-10 2.90554 0.965183 0.102902 4.64674e-10 1.80863e-10 1.50598e-10 10.2786 0.731801 0.0259123 4.64668e-10 1.80867e-10 1.50602e-10 2.22167 -0.733487 -0.20892 -3.19965e-14 -8.01803e-14 -2.68212e-14 -73.6456 24.8217 -2.45723 13.9106 -6.8822 -25.3749 0.00467323 1.942 -0.273038 6.58946e-10 8.65778e-10 8.04662e-10 1.141e-09 1.49999e-09 1.3915e-09 6.58944e-10 8.6578e-10 8.04674e-10 -7.73091 5.47488 -0.417314 6.58949e-10 8.65779e-10 8.04656e-10 -2.90554 0.965183 -0.102902 6.58941e-10 8.6578e-10 8.04661e-10 -10.2786 0.731801 -0.0259123 6.58949e-10 8.65782e-10 8.04657e-10 -2.22167 -0.733487 0.20892 -2.03217e-16 0.0 -3.88251e-19 6.17847 -60.7708 6.24061 -0.520361 49.9486 1.33656 -5.8568 -29.9575 -9.48993 2.03217e-16 0.0 3.88251e-19 -13.1015 -63.5472 -19.3961 0.730057 53.1788 -1.09052 -0.401641 -14.316 -2.53081
57.814 74.4335 61.7124 178.271 -4.8834 -145.842 -7.60662 -19.8494 -2.19955 2.12358 7.45008 -0.701521 3.79816 10.0945 10.4484 32.6512 -14.3866 19.3403 -0.0 0.0 0.0 -0.0 0.0 0.0 -6.8006e-14 -2.54448e-13 -3.47873e-14 81.6838 27.0186 -0.575257 -21.0703 -14.4203 41.3458 -0.0728601 -7.67838 -1.0857 1.00126e-09 -9.09327e-10 1.49359e-11 1.73048e-09 -1.57145e-09 3.25299e-11 1.00126e-09 -9.09334e-10 1.49327e-11 7.73091 5.47488 0.417314 1.00125e-09 -9.09336e-10 1.49391e-11 2.90554 0.965183 0.102902 1.00126e-09 -9.09334e-10 1.49367e-11 10.2786 0.731801 0.0259123 1.00125e-09 -9.0933e-10 1.49391e-11 2.22167 -0.733487 -0.20892 -6.79672e-14 -2.54439e-13 -3.51849e-14 -73.5059 24.7202 -2.80269 13.9657 -6.92678 -25.4851 0.00470259 1.95765 -0.275238 1.21864e-09 3.09264e-10 1.28253e-10 2.10453e-09 5.37472e-10 2.21783e-10 1.21864e-09 3.09267e-10 1.28265e-10 -7.73091 5.47488 -0.417314 1.21865e-09 3.09266e-10 1.28246e-10 -2.90554 0.965183 -0.102902 1.21864e-09 3.09267e-10 1.2825e-10 -10.2786 0.731801 -0.0259123 1.21865e-09 3.0927e-10 1.28246e-10 -2.22167 -0.733487 0.20892 -2.03217e-16 0.0 -3.88251e-19 5.77734 -61.9879 5.31709 -0.583312 51.9148 1.43041 -6.06856 -30.5609 -9.67834 2.03217e-16 0.0 3.88251e-19 -13.9897 -64.8781 -19.91 0.822119 55.2083 -1.17313 -0.691696 -14.4018 -3.37494
57.8174 73.7066 61.7815 178.178 -5.2222 -145.869 -7.56653 -19.4261 -2.07615 2.03497 7.35261 -0.655938 4.55125 10.2398 10.7697 31.7293 -14.4382 19.8466 -0.0 0.0 0.0 -0.0 0.0 0.0 -7.82688e-14 -2.21921e-13 4.6867e-14 81.5036 27.5525 -0.355058 -21.2579 -14.6819 41.8247 -0.0728515 -7.6747 -1.08518 8.10104e-10 -6.46804e-10 1.97016e-10 1.3988e-09 -1.11529e-09 3.46736e-10 8.10109e-10 -6.4681e-10 1.97011e-10 7.73091 5.47488 0.417314 8.10102e-10 -6.46813e-10 1.97019e-10 2.90554 0.965183 0.102902 8.10108e-10 -6.46811e-10 1.97018e-10 10.2786 0.731801 0.0259123 8.101e-10 -6.46808e-10 1.97021e-10 2.22167 -0.733487 -0.20892 -7.82494e-14 -2.21914e-13 4.64857e-14 -73.4076 24.5614 -3.09534 14.0467 -6.9924 -25.6475 0.00396989 1.82294 -0.256281 9.10943e-10 -1.25868e-10 2.30623e-10 1.57252e-09 -2.16553e-10 3.99194e-10 9.1094e-10 -1.25864e-10 2.30637e-10 -7.73091 5.47488 -0.417314 9.10945e-10 -1.25866e-10 2.30618e-10 -2.90554 0.965183 -0.102902 9.10938e-10 -1.25864e-10 2.30621e-10 -10.2786 0.731801 -0.0259123 9.10947e-10 -1.25861e-10 2.30618e-10 -2.22167 -0.733487 0.20892 -2.03217e-16 0.0 -3.88251e-19 5.33484 -63.2357 4.32005 -0.658216 54.0223 1.54279 -6.39382 -31.1309 -10.0527 2.03217e-16 0.0 3.88251e-19 -14.9293 -66.164 -20.4939 0.925263 57.21 -1.26613 -0.967325 -14.4878 -4.1648
